# 3ds Max Wavefront OBJ Exporter v0.99 - (c)2007 guruware
# File Created: 27.11.2025 16:41:51

mtllib NewModularWallDoubleDoor.mtl

#
# object UCX_ModularWallDoubleDoor_00
#

v  -39.3701 0.0000 39.3701
v  -35.4328 0.0000 39.3701
v  -35.4328 -0.0000 -39.3701
v  -39.3701 -0.0000 -39.3701
v  35.4372 0.0000 39.3701
v  35.4372 0.0000 -39.3701
v  39.3701 0.0000 39.3701
v  39.3701 0.0000 -39.3701
# 8 vertices

vn 0.0000 1.0000 -0.0000
# 1 vertex normals

vt 1.0000 0.0000 0.0000
vt 0.9500 0.0000 0.0000
vt 0.9500 1.0000 0.0000
vt 1.0000 1.0000 0.0000
vt 0.0499 0.0000 0.0000
vt 0.0499 1.0000 0.0000
vt 0.0000 0.0000 0.0000
vt 0.0000 1.0000 0.0000
# 8 texture coords

o UCX_ModularWallDoubleDoor_00
g UCX_ModularWallDoubleDoor_00
usemtl wire_086086086
s 2
f 1/1/1 2/2/1 3/3/1 4/4/1 
f 2/2/1 5/5/1 6/6/1 3/3/1 
f 5/5/1 7/7/1 8/8/1 6/6/1 
# 3 polygons

#
# object UCX_ModularWallDoubleDoor_01
#

v  -37.7953 1.5748 39.3701
v  -37.7953 85.0440 39.3700
v  -37.0076 85.0440 39.3700
v  -37.0076 1.5748 39.3701
v  -39.3701 86.6188 39.3700
v  -39.3701 118.1103 39.3700
v  -35.4328 118.1103 39.3700
v  -35.4328 86.6188 39.3700
v  -33.8580 116.5355 39.3700
v  33.8624 116.5355 39.3700
v  33.8624 88.1936 39.3700
v  -33.8580 88.1936 39.3700
v  37.0120 85.0440 39.3700
v  37.7953 85.0440 39.3700
v  37.7953 1.5748 39.3701
v  37.0120 1.5748 39.3701
v  35.4372 118.1103 39.3700
v  39.3701 118.1103 39.3700
v  39.3701 86.6188 39.3700
v  35.4372 86.6188 39.3700
v  -35.4328 0.0000 39.3701
v  -39.3701 0.0000 39.3701
v  -35.6297 86.1436 38.1889
v  -35.6296 0.4753 38.1890
v  -36.8107 1.6564 38.1890
v  -36.8108 84.9625 38.1889
v  34.9619 86.8157 38.1889
v  -34.9576 86.8157 38.1889
v  -33.7765 87.9968 38.1889
v  33.7808 87.9968 38.1889
v  39.3701 0.0000 39.3701
v  35.4372 0.0000 39.3701
v  35.6340 0.4753 38.1890
v  35.6340 86.1436 38.1889
v  36.8151 84.9625 38.1889
v  36.8151 1.6564 38.1890
v  -35.4328 0.0000 38.5827
v  -35.4328 86.6188 38.5826
v  -37.0076 1.5748 38.5827
v  -37.0076 85.0440 38.5826
v  35.4372 86.6188 38.5826
v  -33.8580 88.1936 38.5826
v  33.8624 88.1936 38.5826
v  35.4372 0.0000 38.5827
v  37.0120 85.0440 38.5826
v  37.0120 1.5748 38.5827
# 46 vertices

vn -0.0000 -0.0000 -1.0000
vn -0.5491 0.2275 -0.8042
vn -0.5491 -0.2275 -0.8042
vn -0.1988 0.1988 -0.9597
vn 0.2275 0.5491 -0.8042
vn -0.2275 0.5491 -0.8042
vn 0.5491 0.2275 -0.8042
vn 0.5491 -0.2275 -0.8042
vn 0.1988 0.1988 -0.9597
vn 0.3204 -0.7735 -0.5469
vn 0.1870 0.4514 -0.8725
vn 0.1870 -0.4514 -0.8725
vn -0.5489 -0.2273 -0.8044
vn -0.5489 0.2273 -0.8044
vn 0.4514 -0.1870 -0.8725
vn -0.4514 -0.1870 -0.8725
vn -0.2273 0.5489 -0.8044
vn 0.2273 0.5489 -0.8044
vn -0.3204 -0.7735 -0.5469
vn -0.1870 -0.4514 -0.8725
vn -0.1870 0.4514 -0.8725
vn 0.5489 0.2273 -0.8044
vn 0.5489 -0.2273 -0.8044
vn 0.3565 -0.8608 -0.3633
vn 0.3565 0.8608 -0.3633
vn -0.8986 -0.3722 -0.2323
vn -0.8986 0.3722 -0.2323
vn -0.8608 -0.3565 -0.3633
vn 0.8608 -0.3565 -0.3633
vn -0.3722 0.8986 -0.2323
vn 0.3722 0.8986 -0.2323
vn -0.3565 0.8608 -0.3633
vn -0.3565 -0.8608 -0.3633
vn 0.8986 0.3722 -0.2323
vn 0.8986 -0.3722 -0.2323
# 35 vertex normals

vt 0.0000 0.0000 0.0000
vt 0.0000 0.7334 0.0000
vt 0.0500 0.7334 0.0000
vt 0.0500 0.0000 0.0000
vt 0.0000 1.0000 0.0000
vt 0.0500 1.0000 0.0000
vt 0.9501 1.0000 0.0000
vt 0.9501 0.7334 0.0000
vt 1.0000 0.7334 0.0000
vt 1.0000 0.0000 0.0000
vt 0.9501 0.0000 0.0000
vt 1.0000 1.0000 0.0000
# 12 texture coords

o UCX_ModularWallDoubleDoor_01
g UCX_ModularWallDoubleDoor_01
usemtl wire_086086086
s 8
f 9/9/2 10/10/2 11/11/3 12/12/4 
f 13/10/2 14/13/2 15/14/2 16/11/5 
f 17/14/2 18/15/2 19/16/6 20/11/7 
f 21/16/8 22/17/2 23/18/2 24/19/9 
f 25/15/2 26/20/2 27/17/2 28/16/10 
s off
f 29/12/11 30/9/2 9/9/2 12/12/4 
f 30/9/2 13/10/2 10/10/2 9/9/2 
f 13/10/2 16/11/5 11/11/3 10/10/2 
f 31/11/12 32/12/13 33/12/14 34/11/15 
f 35/16/16 36/11/17 37/11/18 38/16/19 
f 16/11/5 15/14/2 17/14/2 20/11/7 
f 15/14/2 25/15/2 18/15/2 17/14/2 
f 25/15/2 28/16/10 19/16/6 18/15/2 
f 27/17/2 39/18/2 23/18/2 22/17/2 
f 39/18/2 40/19/20 24/19/9 23/18/2 
f 41/19/21 42/16/22 43/16/23 44/19/24 
f 28/16/10 27/17/2 22/17/2 21/16/8 
f 16/11/5 29/12/11 45/12/25 46/11/26 
f 29/12/11 12/12/4 47/12/27 45/12/25 
f 12/12/4 11/11/3 48/11/28 47/12/27 
f 11/11/3 16/11/5 46/11/26 48/11/28 
f 28/16/10 16/11/5 46/11/29 49/16/30 
f 16/11/5 20/11/7 50/11/31 46/11/29 
f 20/11/7 19/16/6 51/16/32 50/11/31 
f 19/16/6 28/16/10 49/16/30 51/16/32 
f 40/19/20 28/16/10 49/16/33 52/19/34 
f 28/16/10 21/16/8 53/16/35 49/16/33 
f 21/16/8 24/19/9 54/19/36 53/16/35 
f 24/19/9 40/19/20 52/19/34 54/19/36 
f 46/11/26 45/12/25 32/12/13 31/11/12 
f 45/12/25 47/12/27 33/12/14 32/12/13 
f 47/12/27 48/11/28 34/11/15 33/12/14 
f 48/11/28 46/11/26 31/11/12 34/11/15 
f 49/16/30 46/11/29 36/11/17 35/16/16 
f 46/11/29 50/11/31 37/11/18 36/11/17 
f 50/11/31 51/16/32 38/16/19 37/11/18 
f 51/16/32 49/16/30 35/16/16 38/16/19 
f 52/19/34 49/16/33 42/16/22 41/19/21 
f 49/16/33 53/16/35 43/16/23 42/16/22 
f 53/16/35 54/19/36 44/19/24 43/16/23 
f 54/19/36 52/19/34 41/19/21 44/19/24 
# 41 polygons

#
# object UCX_ModularWallDoubleDoor_02
#

v  -39.3701 118.1103 39.3700
v  -39.3701 118.1102 -39.3701
v  -35.4328 118.1102 -39.3701
v  -35.4328 118.1103 39.3700
v  35.4372 118.1102 -39.3701
v  35.4372 118.1103 39.3700
v  39.3701 118.1102 -39.3701
v  39.3701 118.1103 39.3700
# 8 vertices

vn -0.0000 -1.0000 0.0000
# 1 vertex normals

vt 0.0000 0.0000 0.0000
vt 0.0000 1.0000 0.0000
vt 0.0500 1.0000 0.0000
vt 0.0500 0.0000 0.0000
vt 0.9501 1.0000 0.0000
vt 0.9501 0.0000 0.0000
vt 1.0000 1.0000 0.0000
vt 1.0000 0.0000 0.0000
# 8 texture coords

o UCX_ModularWallDoubleDoor_02
g UCX_ModularWallDoubleDoor_02
usemtl wire_086086086
s 4
f 55/21/37 56/22/37 57/23/37 58/24/37 
f 57/23/37 59/25/37 60/26/37 58/24/37 
f 59/25/37 61/27/37 62/28/37 60/26/37 
# 3 polygons

